<?xml version="1.0" standalone="no"?>
<!DOCTYPE svg PUBLIC "-//W3C//DTD SVG 20010904//EN"
 "http://www.w3.org/TR/2001/REC-SVG-20010904/DTD/svg10.dtd">
<svg version="1.0" xmlns="http://www.w3.org/2000/svg"
 width="16.000000pt" height="16.000000pt" viewBox="0 0 16.000000 16.000000"
 preserveAspectRatio="xMidYMid meet">
<metadata>
Created by potrace 1.11, written by Peter Selinger 2001-2013
</metadata>
<g transform="translate(0.000000,16.000000) scale(0.003107,-0.003107)"
fill="#000000" stroke="none">
<path d="M2360 4280 c-206 -21 -344 -58 -505 -135 -195 -92 -339 -226 -420
-389 -53 -108 -72 -178 -81 -295 -28 -365 173 -664 586 -871 111 -56 274 -121
450 -180 275 -92 440 -166 523 -234 108 -89 147 -274 87 -413 -38 -90 -140
-165 -267 -198 -89 -23 -338 -20 -439 5 -158 40 -266 115 -327 228 -28 51 -57
173 -57 238 l0 34 -330 0 c-257 0 -330 -3 -330 -12 0 -7 5 -56 10 -109 42
-428 356 -745 868 -874 312 -78 730 -55 1010 56 184 73 357 212 440 354 146
251 143 611 -9 869 -55 92 -200 237 -309 307 -168 109 -322 177 -615 273 -292
96 -383 135 -491 211 -121 86 -166 185 -143 312 28 152 151 261 330 293 81 15
247 15 328 0 120 -22 235 -96 301 -195 25 -38 51 -123 59 -195 l6 -55 319 -3
c176 -1 323 1 326 5 4 5 3 51 -1 104 -33 389 -313 700 -734 818 -60 16 -144
35 -185 40 -116 16 -306 21 -400 11z"/>
</g>
</svg>
